<svg xmlns="http://www.w3.org/2000/svg" xmlns:xlink="http://www.w3.org/1999/xlink" width="32" height="30" viewBox="0 0 32 30">
    <defs>
        <path id="a" d="M16 30h16V0H0v30z"/>
    </defs>
    <g fill="none" fill-rule="evenodd">
        <mask id="b" fill="#fff">
            <use xlink:href="#a"/>
        </mask>
        <path fill="#FFF" d="M11.73 25.714h.006a1.07 1.07 0 1 1-.003 2.143 1.07 1.07 0 0 1-.002-2.143m14.93 0h.012a1.07 1.07 0 0 1 1.06 1.072 1.07 1.07 0 0 1-1.066 1.072 1.07 1.07 0 0 1-1.067-1.072 1.07 1.07 0 0 1 1.06-1.072M30.15 6.43H8.532l-.715-4.316A2.525 2.525 0 0 0 5.333 0h-3.2C.955 0 0 .96 0 2.143c0 1.183.955 2.143 2.133 2.143a2.14 2.14 0 0 0 2.134-2.144h.888c.308 0 .57.224.622.528l2.756 16.616a3.207 3.207 0 0 0-3.2 3.214 3.207 3.207 0 0 0 3.2 3.214h.189A3.207 3.207 0 0 0 11.734 30c1.766 0 3.2-1.439 3.2-3.214v-1.073h8.719A3.207 3.207 0 0 0 26.667 30c1.767 0 3.2-1.439 3.2-3.214v-2.143c0-.592-.478-1.071-1.067-1.071H8.533A1.07 1.07 0 0 1 7.467 22.5c0-.59.478-1.073 1.066-1.073h19.483a2.466 2.466 0 0 0 2.435-2.12l1.53-10.758a1.854 1.854 0 0 0-1.832-2.12" mask="url(#b)"/>
    </g>
</svg>
