<svg xmlns="http://www.w3.org/2000/svg" xmlns:xlink="http://www.w3.org/1999/xlink" width="85" height="42" viewBox="0 0 85 42">
    <defs>
        <path id="a" d="M.668.673h.672v-.05H.668v.05z"/>
        <path id="c" d="M0 .6v23.622h21.907V.6H0z"/>
    </defs>
    <g fill="none" fill-rule="evenodd">
        <path fill="#86ECB9" d="M46.668 26.765c.078 0 .162-.017.242-.028-.084.01-.17.028-.25.028h.008zM45.756 26.727a1.366 1.366 0 0 0-.004 0h.004zM55.924 16.383c-.037 0-.071.008-.107.012.037-.004.074-.012.112-.012h-.005zM36.752 31.458c.065 0 .12-.015.176-.027-.058.013-.114.027-.181.027h.005zM45.682 13.002c-.072 0-.144.027-.216.049.074-.022.146-.05.221-.05h-.005zM47.783 15.804c-.101 0-.187.024-.276.043.092-.019.18-.043.285-.043h-.01zM62.431 6.122c-.052 0-.1.01-.15.015.053-.005.104-.015.158-.015h-.008z"/>
        <g transform="translate(47.767 41.172)">
            <mask id="b" fill="#fff">
                <use xlink:href="#a"/>
            </mask>
            <path fill="#86ECB9" d="M.688.673c.178 0 .35-.028.523-.05-.18.024-.358.05-.543.05h.02" mask="url(#b)"/>
        </g>
        <path fill="#86ECB9" d="M60.257 12.772c.045 0 .091-.013.137-.02-.047.008-.095.02-.14.02h.003zM41.359.5c-.111 0-.211.017-.315.028.11-.012.215-.029.333-.028h-.018M31.29 14.342c-.14 0-.273.019-.408.03.144-.012.285-.03.435-.03h-.027M32.374 19.764c.11 0 .203-.028.3-.05-.1.023-.196.05-.308.05h.008zM20.529 28.518c.082 0 .164-.013.247-.02-.087.008-.174.02-.26.02h.013zM29.339 28.562c.131 0 .26-.01.39-.016-.145.006-.289.016-.435.016h.045M20.624 16.475c-.1 0-.188.014-.28.022.098-.009.192-.022.299-.022h-.019M21.468 11.333c-.062 0-.12.012-.178.02.061-.008.121-.02.186-.02h-.008zM21.032 14.392c.06 0 .116-.012.174-.02-.06.008-.12.02-.183.02h.009zM62.125 27.414c-.05 0-.086.011-.128.018.044-.007.082-.018.133-.018h-.005zM66 29.788c.16 0 .312-.009.468-.013-.182.005-.362.014-.548.013H66M1.688 5.582c-.058 0-.118.018-.176.032.06-.014.12-.032.18-.032h-.004zM8.662 28.39c.055 0 .104-.002.156-.005-.058.003-.114.006-.177.006h.021M20.867 4.77c-.044 0-.085.014-.128.024.043-.01.086-.024.13-.024h-.002zM61.336 25.291c.06 0 .115-.016.171-.03-.057.014-.113.03-.174.03h.003zM66.942 11.83c-.055 0-.107.01-.16.015.057-.006.112-.015.17-.015h-.01z"/>
        <g transform="translate(0 4.17)">
            <mask id="d" fill="#fff">
                <use xlink:href="#c"/>
            </mask>
            <path fill="#86ECB9" d="M21.568 2.152c.068-.089.14-.184.22-.285a.51.51 0 0 0 .12-.319c0-.246-.11-.466-.334-.658C21.351.7 21.116.602 20.87.6c-.045 0-.088.015-.13.025-.024.006-.046.004-.069.013a.684.684 0 0 0-.189.113c-.124.1-.248.222-.372.368-.124.145-.237.29-.338.435a8.018 8.018 0 0 0-.254.385 62.573 62.573 0 0 0-2.17 3.505c-.702 1.22-1.392 2.41-2.071 3.572-.61 1.052-1.216 2.097-1.815 3.137a166.19 166.19 0 0 0-1.782 3.17c-.317.559-.628 1.118-.933 1.676a9.12 9.12 0 0 0-.732 1.746 53.686 53.686 0 0 0-2-7.124A38.37 38.37 0 0 0 4.87 4.927c-.267-.45-.54-.883-.818-1.299a9.64 9.64 0 0 0-.953-1.199c-.179-.18-.396-.394-.652-.642-.257-.249-.509-.373-.755-.374-.06 0-.12.018-.18.032-.032.007-.063.006-.095.017a1.204 1.204 0 0 0-.282.15 2.869 2.869 0 0 0-.54.502c-.17.2-.31.407-.424.62-.113.213-.17.408-.171.588 0 .157.093.343.283.556.19.214.34.378.452.49.379.45.713.946 1.001 1.486.289.54.567 1.068.834 1.585a65.813 65.813 0 0 1 3.04 7.247 42.265 42.265 0 0 1 1.93 7.58c.045.179.071.38.082.605.01.224.048.438.115.64.066.202.166.37.3.506.134.135.335.203.604.205.063 0 .118-.004.176-.006.038-.002.078-.001.113-.004.055-.005.102-.012.151-.02.03-.003.062-.005.09-.01.05-.01.093-.023.137-.036.02-.005.045-.01.063-.016a1.058 1.058 0 0 0 .585-.507c.09-.18.153-.397.188-.656a5.02 5.02 0 0 1 .19-.823c.091-.336.233-.71.426-1.124.192-.414.402-.834.628-1.259.226-.424.453-.838.68-1.24.225-.404.43-.772.61-1.108.906-1.677 1.823-3.349 2.75-5.015a245.053 245.053 0 0 1 2.852-4.981c.519-.894 1.034-1.795 1.543-2.7.51-.906 1.09-1.761 1.745-2.565" mask="url(#d)"/>
        </g>
        <path fill="#86ECB9" d="M21.206 14.373c.048-.005.098-.005.144-.015.06-.014.117-.039.175-.06.04-.015.083-.024.123-.043.065-.031.126-.076.187-.118.029-.019.058-.032.086-.054.087-.068.17-.149.249-.24.315-.37.474-.777.477-1.226a1.363 1.363 0 0 0-.316-.893c-.212-.259-.497-.39-.855-.391-.065 0-.124.012-.186.02-.047.005-.095.005-.14.015-.061.014-.117.04-.176.062-.039.016-.081.025-.119.043-.061.031-.117.075-.175.115-.03.023-.063.038-.093.062a1.803 1.803 0 0 0-.241.249c-.305.38-.458.783-.46 1.209-.002.336.098.634.298.892.2.26.48.39.84.392.063 0 .121-.012.182-.019M57.013 25.051c.063-1.58.1-3.112.107-4.591l.005-.841a14.45 14.45 0 0 0-.046-1.178 8.645 8.645 0 0 0-.162-1.144c-.077-.36-.182-.584-.317-.674-.223-.159-.447-.239-.671-.24-.038 0-.075.007-.112.011-.027.004-.057.004-.084.01-.037.008-.07.023-.105.036-.025.01-.05.015-.074.026-.039.019-.074.045-.11.07-.019.012-.038.02-.056.035-.052.041-.102.09-.15.145-.192.224-.367.425-.524.603a151.74 151.74 0 0 0-2.388 3.1 29.051 29.051 0 0 1-2.554 2.964c-.09.09-.243.234-.456.435-.215.201-.44.401-.676.603-.237.2-.468.378-.693.534a1.769 1.769 0 0 1-.303.175c-.03.013-.052.011-.08.02-.054.017-.11.038-.154.038h-.002c-.18-.001-.28-.09-.302-.27a3.626 3.626 0 0 1-.03-.438c0-.314.053-.706.156-1.177a23.841 23.841 0 0 1 .856-2.956c.17-.47.313-.85.426-1.142.114-.268.26-.598.443-.99.181-.39.273-.733.274-1.025a1.283 1.283 0 0 0-.432-.977 1.446 1.446 0 0 0-1.008-.409c-.103 0-.192.025-.284.043-.048.01-.103.009-.146.023a1.02 1.02 0 0 0-.345.2 2.227 2.227 0 0 0-.508.67 2.712 2.712 0 0 0-.255.621c-.058.213-.12.431-.188.655-.32.963-.599 1.96-.84 2.99a13.73 13.73 0 0 0-.368 3.059c0 .098.017.209.021.31a28.468 28.468 0 0 0-1.447-.906c-.682-.395-1.37-.786-2.063-1.171a50.922 50.922 0 0 0-1.258-.712 12.5 12.5 0 0 0-1.292-.613 276.028 276.028 0 0 1 3.261-3.044 65.123 65.123 0 0 1 3.396-2.91c.18-.156.377-.34.591-.552.214-.212.322-.441.323-.688 0-.18-.071-.354-.216-.522-.145-.17-.307-.255-.486-.255-.075 0-.148.027-.221.049-.038.011-.076.009-.113.025-.109.05-.217.125-.324.225-.214.2-.4.369-.557.502-1.037.981-2.074 1.94-3.11 2.877a62.5 62.5 0 0 0-3.042 2.946 88.59 88.59 0 0 1 .887-5.833c.357-1.916.765-3.836 1.224-5.762.206-.852.417-1.709.634-2.571.218-.862.486-1.718.804-2.569.09-.246.17-.492.24-.74.068-.245.103-.492.104-.739.003-.605-.276-.91-.837-.912-.117 0-.222.016-.332.027-.075.008-.157.008-.228.02-.108.02-.203.056-.302.088-.06.02-.127.03-.185.055-.105.044-.197.106-.292.166-.04.026-.088.044-.127.073a2.027 2.027 0 0 0-.354.336 5.02 5.02 0 0 0-.95 1.778 40.796 40.796 0 0 0-1.116 4.502c-.289 1.524-.56 3.047-.814 4.57a94.875 94.875 0 0 0-.771 6.12 70.634 70.634 0 0 0-.296 6.013 9.868 9.868 0 0 1-1.135 1.026 7.862 7.862 0 0 1-1.872 1.05 5.588 5.588 0 0 1-.509.173c-.052.015-.106.025-.158.038-.12.031-.24.063-.362.086-.07.012-.141.018-.212.03-.107.015-.212.033-.32.042-.077.008-.156.008-.234.011-.098.005-.195.013-.294.013h-.032c-.493-.002-.913-.105-1.26-.308a2.422 2.422 0 0 1-.837-.812 3.433 3.433 0 0 1-.448-1.13 5.922 5.922 0 0 1-.129-1.261c.003-.494.095-1.154.28-1.984.183-.828.445-1.646.785-2.451a7.913 7.913 0 0 1 1.256-2.08c.123-.145.25-.271.382-.38.049-.039.101-.064.15-.099.086-.06.17-.126.259-.171.06-.031.124-.046.186-.07.081-.033.162-.072.246-.093.066-.015.136-.014.203-.023.083-.01.164-.03.25-.03h.01c.381.002.61.144.687.424.077.281.115.578.114.892a2.859 2.859 0 0 1-.31 1.328c-.204.391-.306.71-.307.956-.002.225.12.337.368.339.112 0 .21-.027.309-.05.05-.01.108-.008.155-.024.14-.05.266-.125.378-.225.226-.2.395-.446.509-.737.113-.291.193-.6.24-.924.046-.325.07-.622.071-.892.005-.896-.233-1.548-.713-1.954-.48-.406-1.146-.611-1.999-.616-.148 0-.29.018-.434.03-.103.007-.21.007-.31.022-.146.02-.283.06-.422.093-.09.022-.183.034-.27.06-.153.048-.3.115-.447.179-.067.029-.137.048-.203.08-.21.104-.412.225-.609.364a7.574 7.574 0 0 0-1.995 2.092 9.83 9.83 0 0 0-1.225 2.753c-.274.997-.413 1.932-.417 2.806a8.65 8.65 0 0 0 .052.987c-.25.32-.51.635-.785.944-.507.57-1.026 1.06-1.555 1.472a4.196 4.196 0 0 1-.388.27c-.043.026-.085.042-.127.065-.083.045-.166.093-.246.127-.05.021-.1.031-.15.048-.07.024-.14.052-.208.068-.052.01-.1.01-.151.016-.063.008-.127.021-.19.021h-.007a.751.751 0 0 1-.67-.373 2.792 2.792 0 0 1-.349-.877 5.14 5.14 0 0 1-.13-1.01 22.99 22.99 0 0 1-.012-.807c.005-1.031.11-2.028.318-2.992.068-.246.159-.532.273-.856L21 18.95c.114-.325.21-.639.29-.94.08-.304.122-.566.122-.79.003-.494-.254-.742-.77-.745-.106 0-.2.014-.299.022-.069.006-.144.006-.21.017-.092.014-.174.043-.258.067-.057.017-.12.027-.174.047-.086.034-.16.08-.237.125-.04.024-.089.04-.126.067a1.52 1.52 0 0 0-.296.27c-.35.413-.627.922-.832 1.526-.182.583-.348 1.26-.498 2.033a11.44 11.44 0 0 0-.23 2.101c-.002.493.029 1.071.093 1.733a7.41 7.41 0 0 0 .429 1.886c.22.595.526 1.102.916 1.518.39.417.922.627 1.595.63.087 0 .174-.011.261-.02.067-.005.133-.005.2-.015.09-.014.18-.04.27-.064.064-.015.127-.025.19-.044.102-.032.206-.078.31-.121.051-.022.102-.037.154-.06.155-.073.311-.158.468-.254.63-.39 1.243-.864 1.84-1.42.412-.385.79-.787 1.153-1.198.153.483.345.943.612 1.357a4.45 4.45 0 0 0 1.356 1.353c.547.35 1.203.527 1.965.53.146.001.29-.009.435-.015.105-.005.21-.005.315-.013.143-.012.285-.033.427-.052.096-.013.193-.02.289-.037.154-.025.305-.061.457-.095.082-.018.166-.032.247-.053.232-.059.463-.128.692-.207.92-.32 1.775-.76 2.563-1.316.307-.218.596-.461.882-.707 0 .472.005.945.022 1.418.02.538.045 1.07.076 1.598.031.526.09 1.003.178 1.43.044.247.127.466.25.657.121.191.328.287.62.29.067 0 .123-.015.18-.027.031-.007.067-.005.094-.015a.612.612 0 0 0 .215-.125.99.99 0 0 0 .27-.402c.057-.157.092-.325.104-.504.012-.18.019-.348.02-.505.002-.516.027-1.02.074-1.513l.143-1.513c.048-.65.101-1.289.16-1.916.06-.627.147-1.255.262-1.883.336.115.66.25.974.41.313.157.626.328.94.508.76.385 1.514.787 2.264 1.205.748.42 1.503.821 2.264 1.206.18.092.353.17.52.238.168.068.342.103.521.104.115 0 .23-.019.346-.049.167.053.35.086.562.087.08 0 .166-.017.25-.028.065-.008.126-.007.194-.022.091-.02.189-.058.284-.09.066-.022.128-.035.196-.062.113-.046.233-.11.351-.172.057-.03.111-.05.17-.083.18-.102.367-.22.56-.357a18.867 18.867 0 0 0 2.314-1.94 30.424 30.424 0 0 0 2.114-2.276c.643-.771 1.1-1.39 1.372-1.86.059 1.749.083 3.487.075 5.214l-.005.976c-.002.314-.015.628-.038.941a31.532 31.532 0 0 0-2.853 2.072 25.949 25.949 0 0 0-2.873 2.693c-.362.393-.692.8-1.005 1.214h1.673c.074-.089.143-.18.218-.268.722-.837 1.5-1.612 2.334-2.326.832-.714 1.61-1.36 2.33-1.94-.07.74-.198 1.564-.382 2.471-.14.684-.308 1.373-.49 2.063h2.42c.282-1.056.511-2.131.683-3.227.243-1.557.397-3.126.46-4.707M49.942 39.732c-.237.2-.484.368-.743.5a1.795 1.795 0 0 1-.39.15c-.044.011-.09.01-.136.017-.085.014-.17.032-.255.032h-.01c-.27-.001-.488-.076-.655-.222a1.612 1.612 0 0 1-.375-.496H45.83c.1.36.234.69.424.976.222.338.512.614.87.829.357.214.794.323 1.31.326.185.002.364-.026.543-.049.084-.01.17-.008.253-.024.257-.05.508-.123.753-.221.494-.2.956-.456 1.383-.767a7.868 7.868 0 0 0 1.183-1.07h-2.587l-.02.02"/>
        <path fill="#86ECB9" d="M47.352 39.669c-.1-.214-.166-.45-.198-.708a5.46 5.46 0 0 1-.047-.69c.005-.986.25-1.95.737-2.889.437-.84.972-1.638 1.596-2.397h-1.674c-.46.607-.874 1.235-1.23 1.886-.6 1.096-.903 2.204-.909 3.326-.002.449.046.891.145 1.33.015.065.04.122.058.186h1.548c-.008-.016-.018-.029-.026-.044M53.27 33.66c-.264.918-.57 1.797-.923 2.636-.351.84-.753 1.55-1.204 2.13-.159.201-.339.42-.542.654a6.165 6.165 0 0 1-.64.633h2.588l.017-.018c.372-.413.694-.832.965-1.256a16.666 16.666 0 0 0 1.955-4.128c.139-.438.264-.88.383-1.326h-2.42c-.06.225-.115.45-.18.675M31.555 15.855c.086-.012.17-.03.259-.03h-.011c-.085 0-.166.019-.248.03M48.418 40.431c.086 0 .17-.018.255-.032-.088.015-.176.033-.266.032h.01zM30.807 26.704c-.108.006-.217.014-.326.014h.032c.099 0 .196-.01.294-.014M21.426 26.818c-.066.008-.132.022-.196.021h.007c.062 0 .126-.013.19-.02M47.564 25.15c-.055.017-.112.038-.156.038h.002c.043 0 .1-.021.154-.038M59.58 15.463c.046 0 .094-.012.141-.02.034-.006.067-.005.1-.015.05-.014.101-.041.152-.064.032-.015.064-.023.097-.042.055-.031.113-.076.17-.117.029-.021.057-.036.086-.06.088-.07.176-.154.266-.248.36-.38.705-.833 1.033-1.358.328-.525.605-1.05.832-1.577.226-.526.352-.923.376-1.192a4.88 4.88 0 0 0 .053-.42c.011-.145.018-.297.019-.454.002-.359-.103-.629-.316-.81-.213-.18-.486-.27-.823-.273-.054 0-.105.01-.157.015-.04.005-.082.004-.121.012-.051.011-.1.03-.149.047-.034.012-.071.02-.105.034-.051.023-.098.055-.147.085-.028.018-.058.03-.086.05a1.547 1.547 0 0 0-.212.19c-.27.29-.407.626-.41 1.007 0 .247.027.483.081.707.055.225.082.46.081.707a3.977 3.977 0 0 1-.208 1.294 9.33 9.33 0 0 1-.426 1.04 6.403 6.403 0 0 1-.425.756c-.135.2-.203.335-.203.402-.001.202.1.303.301.304M76.05 22.17c-.032 0-.06.006-.091.01-.024.003-.05.003-.073.009-.01.003-.02.009-.031.012a6.038 6.038 0 0 1-.208 1.565 6.17 6.17 0 0 1-.832-.368 18.937 18.937 0 0 1-2.215 2.437c-.541.503-1.08.937-1.622 1.304a4.22 4.22 0 0 1-.38.232c-.04.022-.079.037-.12.056-.08.038-.16.078-.236.107-.046.017-.088.026-.133.04-.068.02-.135.041-.2.053-.045.009-.088.01-.131.015-.046.004-.094.014-.139.014-.026 0-.05 0-.076-.002.272-.38.47-.793.595-1.242.126-.448.19-.896.192-1.344a6.897 6.897 0 0 0-.326-2.122 14.001 14.001 0 0 0-.83-2.039 67.926 67.926 0 0 0-1.034-1.973 19.378 19.378 0 0 1-.932-1.956c.205-.514.387-1.057.547-1.629.16-.57.241-1.137.244-1.697 0-.179-.015-.37-.048-.573a2.704 2.704 0 0 0-.165-.589 1.217 1.217 0 0 0-.334-.472.785.785 0 0 0-.52-.188c-.059 0-.114.01-.17.015-.043.005-.086.004-.128.012-.055.01-.108.03-.16.046-.04.013-.08.02-.117.035-.057.023-.112.056-.167.087-.031.016-.063.029-.093.048a1.757 1.757 0 0 0-.244.19c-.316.289-.575.635-.78 1.038a6.28 6.28 0 0 0-.476 1.275c-.115.45-.172.84-.174 1.177-.003.606.094 1.201.294 1.785a19.946 19.946 0 0 1-3.464 6.407 3.046 3.046 0 0 0-.288.403.92.92 0 0 0-.12.47c-.002.314.154.472.468.474.061 0 .117-.017.174-.031.028-.007.057-.005.084-.015a.787.787 0 0 0 .231-.137c.146-.123.276-.24.389-.352.338-.334.67-.748.999-1.24a21.36 21.36 0 0 0 .932-1.542c.294-.536.56-1.079.799-1.628.238-.547.437-1.045.596-1.494.267.406.539.884.817 1.435.278.55.527 1.118.749 1.702.22.584.403 1.168.546 1.752.143.584.213 1.133.21 1.65-.004.852-.238 1.551-.7 2.098a2.13 2.13 0 0 1-.386.357c-.046.034-.104.054-.153.085-.101.06-.2.125-.314.17-.066.027-.143.039-.213.06-.11.033-.215.072-.335.093-.082.014-.176.012-.263.02-.116.012-.228.03-.353.03h-.022a5.451 5.451 0 0 1-1.244-.141 3.652 3.652 0 0 1-1.142-.51c-.112-.069-.207-.125-.284-.17a.649.649 0 0 0-.32-.07c-.05 0-.09.011-.133.018-.034.005-.074.004-.104.014-.04.012-.068.036-.1.056-.021.013-.049.02-.068.037-.029.027-.046.066-.065.102-.01.02-.028.034-.036.055a.662.662 0 0 0-.035.22c0 .157.033.292.1.404.066.113.155.226.267.339.49.473 1.111.779 1.862.917.751.138 1.45.208 2.101.212.187.001.367-.008.55-.014.121-.003.246-.003.367-.01.172-.01.34-.029.508-.045.11-.01.223-.017.33-.03.182-.022.358-.054.533-.084.09-.015.18-.026.267-.043.26-.05.514-.11.761-.177a9.72 9.72 0 0 0 2.73-1.215 11.406 11.406 0 0 0 2.281-1.973 20.935 20.935 0 0 0 1.853-2.439c.13-.514.182-1.03.184-1.54a.559.559 0 0 0-.234-.049"/>
        <path fill="#FFF" d="M75.886 22.189c.024-.006.05-.006.073-.009.03-.004.057-.01.087-.01h.003c.094 0 .17.018.235.047a6.47 6.47 0 0 0-.137-1.38c-.03-.003-.06-.013-.091-.013-.117 0-.23.02-.34.04.095.435.141.883.14 1.337.01-.003.02-.01.03-.012M77.407 24.228c-.045-.059-.09-.119-.133-.18l-.007.001c.013.1.037.2.062.299.015-.025.031-.047.047-.07l.031-.05z"/>
        <path fill="#86ECB9" d="M69.778 27.641c-.073.008-.146.017-.215.013.026.002.05.002.076.002.045 0 .093-.01.139-.015M65.495 28.276c-.123.011-.242.03-.375.029h.022c.125 0 .237-.019.353-.03M84.421 20.205a6.028 6.028 0 0 0-2.374-.77c.01.398-.038.805-.161 1.207a4.776 4.776 0 0 1-1.365 2.133 6.063 6.063 0 0 0 3.9-2.57M80.52 22.776a4.835 4.835 0 0 1-3.015 1.255c-.003.006-.013.022-.014.026l-.048.115-.036.056a6.09 6.09 0 0 0 5.972 2.243 6.058 6.058 0 0 0-2.86-3.695"/>
        <path fill="#6DA509" d="M77.443 24.172l.048-.115c0-.004.011-.02.014-.027-.078.004-.153.02-.231.02.044.06.087.12.133.178l.036-.056z"/>
        <path fill="#CE1B69" d="M75.855 22.201c-.019.006-.036.014-.054.022.018-.008.035-.016.054-.022zM73.96 22.278l.019-.027c.115-.16.255-.35.418-.568.339-.456.799-.732 1.318-.819a6.085 6.085 0 0 0-3.94-4.44 6.092 6.092 0 0 0 1.922 6.222c.112-.147.194-.262.244-.34l.018-.028z"/>
        <path fill="#CE1B69" d="M75.855 22.201c-.019.006-.036.014-.054.022-.022.009-.044.014-.064.025-.03.017-.058.04-.086.062-.017.013-.035.022-.051.037a.972.972 0 0 0-.124.14c-.159.211-.294.396-.406.552-.07.106-.158.229-.255.36.266.14.54.266.832.367a6.033 6.033 0 0 0 .208-1.565"/>
        <path fill="#CE1B69" d="M75.07 23.039c.112-.156.248-.34.406-.552.039-.054.08-.1.124-.14.017-.015.035-.024.051-.037.029-.021.056-.045.086-.062.02-.011.042-.016.063-.025.018-.008.037-.016.055-.022a6.027 6.027 0 0 0-.14-1.337c-.519.087-.98.363-1.319.819-.162.218-.302.408-.418.569l-.019.026-.018.028a6.303 6.303 0 0 1-.244.34c.338.29.714.54 1.118.752.097-.13.185-.253.255-.36M77.658 21.778c.16.323.24.684.238 1.075 0 .15-.024.299-.062.446a3.095 3.095 0 0 0 1.326-1.717l1.024-3.335c-.68.346-1.755.383-2.89.034-1.474-.453-2.585-1.288-2.996-2.153l-.324 1.053a6.548 6.548 0 0 1 2.173 3.655c.668.033 1.23.374 1.511.942M76.431 23.197a.663.663 0 0 0 .12-.352 1.036 1.036 0 0 0-.099-.472.333.333 0 0 0-.168-.155 6.469 6.469 0 0 1-.185 1.54c.048-.072.098-.135.145-.209.046-.11.108-.229.187-.352"/>
        <path fill="#CE1B69" d="M76.452 22.373c.066.136.1.292.098.472 0 .112-.04.23-.119.352-.08.124-.141.241-.187.352-.047.074-.098.137-.145.21-.003.009-.003.02-.006.03a3.128 3.128 0 0 0 1.741-.49c.037-.147.061-.296.062-.447a2.365 2.365 0 0 0-.238-1.075c-.28-.567-.843-.908-1.51-.94.095.45.138.911.136 1.38a.337.337 0 0 1 .168.156M77.421 17.866c1.426.438 2.816.21 3.033-.499.149-.485-.52-1.259-1.755-1.637-.949-.292-1.733-.093-1.844.267-.083.267.359.731 1.072.95l-.128.415c-.932-.286-1.528-.941-1.359-1.493.203-.66 1.25-.904 2.386-.555a4.8 4.8 0 0 1 .301.104l.347-1.128c-2.288-.698-4.519-.304-4.877.864-.28.914 1.013 2.155 2.824 2.712M80.518 22.776h.001l.002-.001h-.003M82.047 19.434a3.834 3.834 0 0 0-1.304-2.79c.16.284.21.577.126.85l-.617 2.013a6.08 6.08 0 0 1 1.795-.073M77.273 24.047l-.006.002h.007l-.001-.002"/>
        <path fill="#CE1B69" d="M80.521 22.775a4.776 4.776 0 0 0 1.365-2.133c.123-.403.171-.809.162-1.208a6.107 6.107 0 0 0-1.797.073l-.676 2.203a3.64 3.64 0 0 1-.226.55c.408.13.799.304 1.169.516h.003"/>
        <path fill="#CE1B69" d="M80.52 22.776h-.001c-.512.098-1.034.133-1.556.098-.374.471-.862.832-1.406 1.062a.768.768 0 0 0-.052.095 4.835 4.835 0 0 0 3.014-1.255"/>
        <path fill="#CE1B69" d="M77.274 24.049c.078 0 .153-.015.23-.018a.762.762 0 0 1 .052-.094c-.093.04-.187.079-.284.11l.002.002M80.518 22.776a6.075 6.075 0 0 0-1.17-.516c-.11.219-.237.427-.386.615.523.034 1.045-.001 1.556-.1"/>
    </g>
</svg>
